<?xml version="1.0" standalone="no"?><!DOCTYPE svg PUBLIC "-//W3C//DTD SVG 1.1//EN" "http://www.w3.org/Graphics/SVG/1.1/DTD/svg11.dtd"><svg t="1557971506687" class="icon" style="" viewBox="0 0 1024 1024" version="1.1" xmlns="http://www.w3.org/2000/svg" p-id="14236" xmlns:xlink="http://www.w3.org/1999/xlink" width="48" height="48"><defs><style type="text/css"></style></defs><path d="M674.84199 621.64467c36.110294 21.454619 45.245726 31.345056 89.54802 44.767513 44.299695 13.419858 70.24536 18.242274 107.522599 18.242274 15.990254 0 52.546274 8.237482 52.546274 47.302822v145.527553h-102.906802v-121.541522c-55.930152-10.252995-92.90331-18.247472-110.918172-23.986031-35.873787-11.426437-53.726213-19.86534-77.855188-37.216162-13.709645-9.857949-49.674396-38.571533-59.780548-49.462579-27.953381-30.120934-47.037726-96.324873-46.217747-129.546396 0-91.03334 49.094822-141.161259 84.925726-180.430619 33.877766-37.038132 54.325279-59.498558 54.325279-114.237076 2.267614-36.882193-13.891574-72.518173-43.23801-95.346356-31.203411-23.948345-78.632284-37.186274-134.051736-37.186274-47.405482-2.193543-94.254782 10.850761-133.556629 37.186274-29.345137 22.828183-45.505624 58.464162-43.236711 95.346356 0 54.292792 20.235695 76.306193 53.752203 112.898599 36.055716 39.26936 85.497503 89.39598 85.497503 181.767797 0 143.243046-111.622497 236.358173-266.197117 238.737543v34.806903h682.03468v88.206945l-770.385868 0.002598V723.827655c0-37.485157 19.170112-57.416772 56.126376-57.416772 22.265503 0 27.133401-0.148142 27.133401-0.148142 101.030335 0 182.93734-49.682193 182.93734-150.531898 0-124.946193-139.251005-129.111066-139.251005-294.666396C223.595858 74.846863 342.279797 0.324873 488.801462 0.324873h0.5107c146.461888 0 265.205604 74.52199 265.205604 220.739574 0 165.55533-139.266599 171.653848-139.266598 294.666396-0.609462 16.490558-1.841381 69.412386 59.590822 105.913827zM927.167025 1023.675127H96.649746V950.57868h830.518579v73.096447z" fill="#000000" p-id="14237"></path></svg>