<?xml version="1.0" standalone="no"?><!DOCTYPE svg PUBLIC "-//W3C//DTD SVG 1.1//EN" "http://www.w3.org/Graphics/SVG/1.1/DTD/svg11.dtd"><svg t="1557970607197" class="icon" style="" viewBox="0 0 1024 1024" version="1.1" xmlns="http://www.w3.org/2000/svg" p-id="9299" xmlns:xlink="http://www.w3.org/1999/xlink" width="32" height="32"><defs><style type="text/css"></style></defs><path d="M640 128H320V64h320v64zM384 448h64V384H384v64z m192 0V384H512v64h64zM192 512H128v64h64V512z m128 0H256v64h64V512z m64 64h64V512H384v64z m-256 128h64v-64H128v64z m128 0h64v-64H256v64z m128 0h64v-64H384v64zM256 0H192v128h64V0z m512 0h-64v128h64V0z m252.8 960h-64c-15.68-108.288-108.224-192-220.8-192s-205.056 83.712-220.736 192h-64a288.32 288.32 0 0 1 176.896-234.56A158.912 158.912 0 0 1 576 608a160 160 0 0 1 320 0c0 46.592-20.224 88.192-52.032 117.44A288 288 0 0 1 1020.8 960zM832 608c0-52.928-43.072-96-96-96S640 555.072 640 608s43.072 96 96 96 96-43.072 96-96zM256 832H64V320h832v131.712c39.488 40.384 64 95.488 64 156.288V64h-128v64h64v128H64V128h64V64H0v832h397.696c6.336-22.336 14.784-43.712 25.216-64H256z m640-287.808v-0.256-0.256 0.512z" fill="" p-id="9300"></path></svg>