<?xml version="1.0" standalone="no"?><!DOCTYPE svg PUBLIC "-//W3C//DTD SVG 1.1//EN" "http://www.w3.org/Graphics/SVG/1.1/DTD/svg11.dtd"><svg t="1557970836356" class="icon" style="" viewBox="0 0 1024 1024" version="1.1" xmlns="http://www.w3.org/2000/svg" p-id="9580" xmlns:xlink="http://www.w3.org/1999/xlink" width="64" height="64"><defs><style type="text/css"></style></defs><path d="M541.011891 950.638227l-22.637015-17.768214C308.085351 768.72741 201.55366 665.473916 201.55366 483.291532c0-179.893465 138.266187-290.518053 316.821216-306.482288V174.578519c7.64266 0 15.110741 0.48494 22.637015 0.814699 7.526274-0.329759 14.994355-0.8147 22.637014-0.814699v2.230725C742.203935 192.77348 880.470121 303.398068 880.470121 483.291532c0 182.182383-106.531692 285.435878-316.821216 449.578481"  opacity=".2" p-id="9581"></path><path d="M541.652012 1000.587081L511.915471 1024.019398l-29.736541-23.432317C205.78234 784.01273 65.770368 647.763895 65.770368 407.349877 65.770368 169.981284 247.487208 24.014245 482.17893 2.948437V0c10.028566 0 19.843758 0.640121 29.736541 1.066869C521.808254 0.640121 531.623446 0 541.652012 0v2.948437C776.343734 24.014245 958.060574 169.981284 958.060574 407.349877c0 240.414018-140.011972 376.662853-416.408562 593.237204zM537.132368 58.580792v-2.502292c-8.515552 0-16.837128 0.523736-25.216897 0.911688-8.379769-0.387952-16.701345-0.911688-25.216897-0.911688v2.502292C287.717858 76.542982 123.963207 224.372192 123.963207 426.74749c0 204.974579 128.392802 317.150976 362.735367 501.796856l25.216897 19.979541 25.216897-19.979541C771.474933 743.898466 899.867734 631.722069 899.867734 426.74749c0-202.375298-163.754651-350.204508-362.735366-368.166698zM511.915471 640.121235c-107.133018 0-193.976132-86.843114-193.976132-193.976132s86.843114-193.976132 193.976132-193.976132 193.976132 86.843114 193.976132 193.976132-86.843114 193.976132-193.976132 193.976132z m0-329.759424a135.783292 135.783292 0 1 0 0 271.566585 135.783292 135.783292 0 0 0 0-271.566585z m0 193.976132a58.19284 58.19284 0 1 1 0-116.385679 58.19284 58.19284 0 0 1 0 116.385679z"  p-id="9582"></path></svg>