<?xml version="1.0" standalone="no"?><!DOCTYPE svg PUBLIC "-//W3C//DTD SVG 1.1//EN" "http://www.w3.org/Graphics/SVG/1.1/DTD/svg11.dtd"><svg t="1555480990320" class="icon" style="" viewBox="0 0 1024 1024" version="1.1" xmlns="http://www.w3.org/2000/svg" p-id="6657" xmlns:xlink="http://www.w3.org/1999/xlink" width="16" height="16"><defs><style type="text/css"></style></defs><path d="M535.665778 102.954667c36.551111 0 66.275556 30.848 66.275555 68.764444v222.705778h217.870223c36.551111 0 66.275556 30.776889 66.275555 68.608V871.708444H137.827556V171.719111c0-37.916444 29.724444-68.764444 66.275555-68.764444h331.562667m0-28.444445H204.103111c-52.295111 0-94.72 43.548444-94.72 97.208889v679.836445h-70.968889v48.597333H985.6v-48.597333h-71.054222V463.032889c0-53.575111-42.424889-97.052444-94.72-97.052445h-189.44V171.719111c0-53.646222-42.424889-97.208889-94.72-97.208889zM38.414222 900.152889z" fill="#e6e6e6" p-id="6658"></path><path d="M819.825778 598.727111h-142.108445a14.222222 14.222222 0 0 1-14.222222-14.222222v-48.526222a14.222222 14.222222 0 0 1 14.222222-14.222223h142.108445a14.222222 14.222222 0 0 1 14.222222 14.222223v48.526222a14.222222 14.222222 0 0 1-14.222222 14.222222z m-127.900445-28.444444h113.664v-20.081778h-113.664v20.081778zM819.825778 744.448h-142.108445a14.222222 14.222222 0 0 1-14.222222-14.222222v-48.597334a14.222222 14.222222 0 0 1 14.222222-14.222222h142.108445a14.222222 14.222222 0 0 1 14.222222 14.222222v48.597334a14.222222 14.222222 0 0 1-14.222222 14.222222z m-127.900445-28.444444h113.664v-20.152889h-113.664v20.152889zM346.154667 355.925333h-142.037334a14.222222 14.222222 0 0 1-14.222222-14.222222v-48.597333a14.222222 14.222222 0 0 1 14.222222-14.222222h142.037334a14.222222 14.222222 0 0 1 14.222222 14.222222v48.597333a14.222222 14.222222 0 0 1-14.222222 14.222222z m-127.815111-28.444444h113.592888v-20.152889h-113.592888v20.152889zM346.154667 501.589333h-142.037334a14.222222 14.222222 0 0 1-14.222222-14.222222v-48.597333a14.222222 14.222222 0 0 1 14.222222-14.222222h142.037334a14.222222 14.222222 0 0 1 14.222222 14.222222v48.597333a14.222222 14.222222 0 0 1-14.222222 14.222222z m-127.815111-28.444444h113.592888v-20.152889h-113.592888v20.152889zM346.154667 647.253333h-142.037334a14.222222 14.222222 0 0 1-14.222222-14.222222v-48.526222a14.222222 14.222222 0 0 1 14.222222-14.222222h142.037334a14.222222 14.222222 0 0 1 14.222222 14.222222v48.526222a14.222222 14.222222 0 0 1-14.222222 14.222222z m-127.815111-28.444444h113.592888v-20.081778h-113.592888v20.081778zM535.665778 355.925333h-142.122667a14.222222 14.222222 0 0 1-14.222222-14.222222v-48.597333a14.222222 14.222222 0 0 1 14.222222-14.222222h142.122667a14.222222 14.222222 0 0 1 14.222222 14.222222v48.597333a14.222222 14.222222 0 0 1-14.222222 14.222222z m-127.900445-28.444444h113.678223v-20.152889h-113.678223v20.152889zM535.665778 501.589333h-142.122667a14.222222 14.222222 0 0 1-14.222222-14.222222v-48.597333a14.222222 14.222222 0 0 1 14.222222-14.222222h142.122667a14.222222 14.222222 0 0 1 14.222222 14.222222v48.597333a14.222222 14.222222 0 0 1-14.222222 14.222222z m-127.900445-28.444444h113.678223v-20.152889h-113.678223v20.152889zM535.665778 647.253333h-142.122667a14.222222 14.222222 0 0 1-14.222222-14.222222v-48.526222a14.222222 14.222222 0 0 1 14.222222-14.222222h142.122667a14.222222 14.222222 0 0 1 14.222222 14.222222v48.526222a14.222222 14.222222 0 0 1-14.222222 14.222222z m-127.900445-28.444444h113.678223v-20.081778h-113.678223v20.081778zM604.088889 362.183111h26.311111v521.372445h-26.311111z" fill="#e6e6e6" p-id="6659"></path></svg>