<?xml version="1.0" standalone="no"?><!DOCTYPE svg PUBLIC "-//W3C//DTD SVG 1.1//EN" "http://www.w3.org/Graphics/SVG/1.1/DTD/svg11.dtd"><svg t="1557971417285" class="icon" style="" viewBox="0 0 1024 1024" version="1.1" xmlns="http://www.w3.org/2000/svg" p-id="13379" xmlns:xlink="http://www.w3.org/1999/xlink" width="48" height="48"><defs><style type="text/css"></style></defs><path d="M992 64 845.3 64 776 320 32 320c-9.6 0-18.7 4.3-24.7 11.7s-8.5 17.2-6.6 26.6l64 320c3 15 16.1 25.7 31.4 25.7l575.9 0-17.3 64-529 0c-17.7 0-32 14.3-32 32s14.3 32 32 32L160 832l512 0 31.5 0 190.8-704L992 128c17.7 0 32-14.3 32-32S1009.7 64 992 64zM122.2 640 71 384l687.6 0-69.4 256L122.2 640z" p-id="13380"></path><path d="M64 928c0 53 43 96 96 96s96-43 96-96-43-96-96-96S64 875 64 928zM160 896c17.6 0 32 14.4 32 32s-14.4 32-32 32-32-14.4-32-32S142.4 896 160 896z" p-id="13381"></path><path d="M576 928c0 53 43 96 96 96s96-43 96-96-43-96-96-96S576 875 576 928zM672 896c17.6 0 32 14.4 32 32s-14.4 32-32 32-32-14.4-32-32S654.4 896 672 896z" p-id="13382"></path></svg>