<?xml version="1.0" standalone="no"?><!DOCTYPE svg PUBLIC "-//W3C//DTD SVG 1.1//EN" "http://www.w3.org/Graphics/SVG/1.1/DTD/svg11.dtd"><svg t="1557970937755" class="icon" style="" viewBox="0 0 1024 1024" version="1.1" xmlns="http://www.w3.org/2000/svg" p-id="10427" xmlns:xlink="http://www.w3.org/1999/xlink" width="64" height="64"><defs><style type="text/css"></style></defs><path d="M146.663314 635.123178c0 98.298793 79.687924 177.979554 177.972391 177.979554 69.648266 0 129.921002-39.997969 159.170163-98.277304L655.223982 745.018078l-0.061398 4.516874c0 70.220295 56.919361 127.129422 127.125329 127.129422 70.206992 0 127.126352-56.908104 127.126352-127.129422 0-70.217225-56.919361-127.122259-127.126352-127.122259-50.91153 0-94.807273 29.883611-115.118877 73.093738l-167.226652-29.435403c1.76418-10.038634 2.671852-20.395516 2.671852-30.947849 0-46.465265-17.820877-88.76465-46.964638-120.445186l154.6318-154.650219c13.953803 5.262864 29.077246 8.129144 44.880163 8.129144 70.205968 0 127.125329-56.905034 127.125329-127.122259s-56.919361-127.125329-127.125329-127.125329-127.125329 56.908104-127.125329 127.125329c0 35.657104 14.686491 67.86976 38.324864 90.962711L415.972946 482.386542c-26.708292-16.012695-57.929364-25.239847-91.337241-25.239847C226.351238 457.150788 146.663314 536.827455 146.663314 635.123178L146.663314 635.123178 146.663314 635.123178z" p-id="10428"></path></svg>