<?xml version="1.0" standalone="no"?><!DOCTYPE svg PUBLIC "-//W3C//DTD SVG 1.1//EN" "http://www.w3.org/Graphics/SVG/1.1/DTD/svg11.dtd"><svg t="1557970161400" class="icon" style="" viewBox="0 0 1024 1024" version="1.1" xmlns="http://www.w3.org/2000/svg" p-id="4755" xmlns:xlink="http://www.w3.org/1999/xlink" width="48" height="48"><defs><style type="text/css"></style></defs><path d="M895.668 558.889C825.084 558.889 767.8 503 767.8 433.919c0 69.074-57.294 124.969-127.866 124.969-70.573 0-127.891-55.889-127.891-124.969 0 69.074-57.276 124.969-127.867 124.969-70.589 0-127.866-55.889-127.866-124.969 0 69.074-57.277 124.969-127.888 124.969C57.847 558.889 0.554 503 0.554 433.919l87.631-228.792 844.395 0 90.867 228.792C1023.558 503 966.257 558.889 895.668 558.889L895.668 558.889 895.668 558.889 895.668 558.889 895.668 558.889zM932.339 203.908l3.638 1.198-3.311 0L932.339 203.908 932.339 203.908 932.339 203.908zM877.333 138.611 146.67 138.611c-24.118 0-43.826-17.825-43.826-39.896 0-21.999 19.615-39.825 43.826-39.825l730.663 0c24.318 0 44.022 17.853 44.022 39.825C921.356 120.813 901.652 138.611 877.333 138.611L877.333 138.611 877.333 138.611 877.333 138.611 877.333 138.611zM161.331 636.482l0 262.801 701.522 0L862.853 636.482c0 0 9.979-0.34 14.476 0l58.648 0 0 275.931c0 23.157-29.828 52.696-56.229 52.696L144.524 965.109c-26.585 0-56.236-29.539-56.236-52.696L88.288 636.482l73.023 0L161.331 636.482 161.331 636.482z" p-id="4756"></path></svg>