<?xml version="1.0" standalone="no"?><!DOCTYPE svg PUBLIC "-//W3C//DTD SVG 1.1//EN" "http://www.w3.org/Graphics/SVG/1.1/DTD/svg11.dtd"><svg t="1555480883255" class="icon" style="" viewBox="0 0 1024 1024" version="1.1" xmlns="http://www.w3.org/2000/svg" p-id="5772" xmlns:xlink="http://www.w3.org/1999/xlink" width="16" height="16"><defs><style type="text/css"></style></defs><path d="M824.4 592.5c-5.6-10.2-16.4-16.5-28-16.5H620.8c-11.6 0-22.3 6.3-28 16.5l-88.9 160c-5.4 9.7-5.4 21.4 0 31.1l88.9 160c5.6 10.2 16.4 16.5 28 16.5h175.7c11.6 0 22.3-6.3 28-16.5l88.9-160c5.4-9.7 5.4-21.4 0-31.1l-89-160z m-30.5 324.8H623.3L537.9 768l85.3-149.3h170.7L879.3 768l-85.4 149.3z"  p-id="5773"></path><path d="M708.6 682.7c-47.1 0-85.3 38.2-85.3 85.3 0 47.1 38.2 85.3 85.3 85.3s85.3-38.2 85.3-85.3c0-47.1-38.2-85.3-85.3-85.3z m0 128c-23.6 0-42.7-19.1-42.7-42.7s19.1-42.7 42.7-42.7 42.7 19.1 42.7 42.7-19.1 42.7-42.7 42.7z"  p-id="5774"></path><path d="M874.7 64H149.3c-23.6 0-42.7 19.1-42.7 42.7v810.7c0 23.6 19.1 42.7 42.7 42.7H448c11.8 0 21.3-9.6 21.3-21.3 0-11.8-9.6-21.3-21.3-21.3H170.7c-11.8 0-21.3-9.6-21.3-21.3V128c0-11.8 9.6-21.3 21.3-21.3h682.7c11.8 0 21.3 9.6 21.3 21.3v384c0 11.8 9.6 21.3 21.3 21.3s21.3-9.6 21.3-21.3V106.7c0-23.6-19.1-42.7-42.6-42.7z"  p-id="5775"></path><path d="M318.1 362.7H706c10.7 0 19.4-9.6 19.4-21.3 0-11.7-8.7-21.3-19.4-21.3H318.1c-10.7 0-19.4 9.6-19.4 21.3 0 11.7 8.7 21.3 19.4 21.3zM313.9 533.3h182.8c8.4 0 15.2-9.6 15.2-21.3 0-11.7-6.9-21.3-15.2-21.3H313.8c-8.4 0-15.2 9.6-15.2 21.3 0.1 11.7 6.9 21.3 15.3 21.3z"  p-id="5776"></path></svg>